<svg width="569" height="265" viewBox="0 0 569 265" fill="none" xmlns="http://www.w3.org/2000/svg">
<path d="M163 5.5C234.134 5.5 291.87 62.8542 292.492 133.842C259.518 103.015 233.827 81.8359 213.981 68.3945C203.974 61.6162 195.442 56.7984 188.205 53.7031C180.972 50.6095 175.003 49.2241 170.131 49.3438C165.242 49.4638 161.458 51.0998 158.638 54.0254C155.83 56.9381 154.018 61.0875 152.975 66.1689C150.89 76.3217 151.841 90.3829 154.305 106.326C156.77 122.284 160.761 140.191 164.796 158.06C168.832 175.935 172.911 193.771 175.562 209.613C178.214 225.469 179.424 239.264 177.756 249.076C176.922 253.979 175.379 257.834 172.989 260.457C170.615 263.063 167.364 264.5 163 264.5C91.4791 264.5 33.5 206.521 33.5 135C33.5 63.4791 91.4791 5.5 163 5.5Z" stroke="#7C3AED"/>
<path d="M130 0.5C201.134 0.5 258.87 57.8542 259.492 128.842C226.518 98.0152 200.827 76.8359 180.981 63.3945C170.974 56.6162 162.442 51.7984 155.205 48.7031C147.972 45.6095 142.003 44.2241 137.131 44.3438C132.242 44.4638 128.458 46.0998 125.638 49.0254C122.83 51.9381 121.018 56.0875 119.975 61.1689C117.89 71.3217 118.841 85.3829 121.305 101.326C123.77 117.284 127.761 135.191 131.796 153.06C135.832 170.935 139.911 188.771 142.562 204.613C145.214 220.469 146.424 234.264 144.756 244.076C143.922 248.979 142.379 252.834 139.989 255.457C137.615 258.063 134.364 259.5 130 259.5C58.4791 259.5 0.5 201.521 0.5 130C0.5 58.4791 58.4791 0.5 130 0.5Z" stroke="#7C3AED"/>
<line x1="260.075" y1="129.506" x2="293.075" y2="134.506" stroke="#7C3AED"/>
<g filter="url(#filter0_d_2_42)">
<mask id="path-4-outside-1_2_42" maskUnits="userSpaceOnUse" x="369" y="155" width="141" height="51" fill="black">
<rect fill="white" x="369" y="155" width="141" height="51"/>
<path d="M370.992 204V156.96H381.36C385.456 156.96 388.741 157.557 391.216 158.752C393.691 159.947 395.483 161.611 396.592 163.744C397.701 165.835 398.256 168.245 398.256 170.976C398.256 175.968 396.805 179.829 393.904 182.56C391.003 185.248 386.608 186.592 380.72 186.592H378.224V204H370.992ZM378.224 180.256H380.912C383.728 180.256 385.861 179.808 387.312 178.912C388.763 178.016 389.744 176.907 390.256 175.584C390.768 174.261 391.024 172.981 391.024 171.744C391.024 170.251 390.747 168.864 390.192 167.584C389.637 166.304 388.677 165.259 387.312 164.448C385.947 163.637 384.027 163.232 381.552 163.232H378.224V180.256ZM413.533 204.64C410.589 204.64 408.349 204.021 406.812 202.784C405.277 201.547 404.231 199.904 403.677 197.856C403.165 195.808 402.909 193.547 402.909 191.072V174.624H409.821V189.344C409.821 191.605 409.949 193.44 410.205 194.848C410.503 196.256 411.058 197.301 411.869 197.984C412.722 198.624 413.981 198.944 415.645 198.944C416.839 198.944 417.97 198.624 419.037 197.984C420.146 197.301 421.063 196.384 421.789 195.232C422.514 194.037 422.877 192.715 422.877 191.264V174.624H429.725V204H424.093L423.325 199.712C422.258 201.333 420.935 202.571 419.357 203.424C417.778 204.235 415.837 204.64 413.533 204.64ZM438.058 204V156.96H444.906V204H438.058ZM463.281 204.64C461.916 204.64 460.486 204.512 458.993 204.256C457.542 204 456.198 203.68 454.961 203.296C453.766 202.869 452.849 202.421 452.209 201.952L454.513 196.512C455.238 197.024 456.326 197.6 457.777 198.24C459.27 198.88 461.105 199.2 463.281 199.2C465.201 199.2 466.502 198.923 467.185 198.368C467.868 197.771 468.209 197.088 468.209 196.32C468.209 195.509 467.91 194.891 467.313 194.464C466.758 193.995 465.948 193.568 464.881 193.184C463.814 192.8 462.556 192.331 461.105 191.776C459.697 191.179 458.353 190.496 457.073 189.728C455.793 188.917 454.748 187.936 453.937 186.784C453.169 185.589 452.785 184.139 452.785 182.432C452.785 179.659 453.852 177.547 455.985 176.096C458.118 174.603 460.934 173.856 464.433 173.856C466.225 173.856 467.953 174.048 469.617 174.432C471.324 174.816 472.604 175.307 473.457 175.904L470.961 181.408C470.449 180.896 469.596 180.427 468.401 180C467.249 179.573 465.862 179.36 464.241 179.36C461.212 179.36 459.697 180.277 459.697 182.112C459.697 183.008 460.017 183.733 460.657 184.288C461.34 184.8 462.214 185.248 463.281 185.632C464.39 185.973 465.585 186.4 466.865 186.912C469.468 187.936 471.452 189.131 472.817 190.496C474.225 191.819 474.929 193.589 474.929 195.808C474.929 197.813 474.396 199.477 473.329 200.8C472.262 202.123 470.833 203.104 469.041 203.744C467.292 204.341 465.372 204.64 463.281 204.64ZM495.37 204.64C491.7 204.64 488.714 203.936 486.41 202.528C484.106 201.077 482.42 199.179 481.354 196.832C480.287 194.485 479.754 191.989 479.754 189.344C479.754 186.144 480.394 183.392 481.674 181.088C482.996 178.784 484.81 177.013 487.114 175.776C489.418 174.496 492.02 173.856 494.922 173.856C499.572 173.856 502.964 175.157 505.098 177.76C507.231 180.32 508.298 183.776 508.298 188.128C508.298 189.28 508.234 190.475 508.106 191.712H486.986C487.455 194.357 488.394 196.256 489.802 197.408C491.252 198.517 493.172 199.072 495.562 199.072C497.866 199.072 499.679 198.859 501.002 198.432C502.324 198.005 503.412 197.579 504.266 197.152L506.378 202.08C505.524 202.635 504.202 203.211 502.41 203.808C500.618 204.363 498.271 204.64 495.37 204.64ZM486.986 186.912H501.578C501.62 184.139 501.002 182.24 499.722 181.216C498.442 180.192 496.778 179.68 494.73 179.68C492.596 179.68 490.847 180.256 489.482 181.408C488.159 182.517 487.327 184.352 486.986 186.912Z"/>
</mask>
<path d="M370.992 204H369.992V205H370.992V204ZM370.992 156.96V155.96H369.992V156.96H370.992ZM396.592 163.744L395.705 164.205L395.709 164.213L396.592 163.744ZM393.904 182.56L394.584 183.294L394.589 183.288L393.904 182.56ZM378.224 186.592V185.592H377.224V186.592H378.224ZM378.224 204V205H379.224V204H378.224ZM378.224 180.256H377.224V181.256H378.224V180.256ZM387.312 178.912L386.787 178.061L386.787 178.061L387.312 178.912ZM390.256 175.584L389.323 175.223L389.323 175.223L390.256 175.584ZM390.192 167.584L389.274 167.982L389.274 167.982L390.192 167.584ZM387.312 164.448L386.801 165.308L386.801 165.308L387.312 164.448ZM378.224 163.232V162.232H377.224V163.232H378.224ZM370.992 204H371.992V156.96H370.992H369.992V204H370.992ZM370.992 156.96V157.96H381.36V156.96V155.96H370.992V156.96ZM381.36 156.96V157.96C385.373 157.96 388.492 158.547 390.781 159.653L391.216 158.752L391.651 157.851C388.991 156.567 385.539 155.96 381.36 155.96V156.96ZM391.216 158.752L390.781 159.653C393.091 160.767 394.709 162.29 395.705 164.205L396.592 163.744L397.479 163.283C396.257 160.931 394.291 159.126 391.651 157.851L391.216 158.752ZM396.592 163.744L395.709 164.213C396.73 166.138 397.256 168.383 397.256 170.976H398.256H399.256C399.256 168.107 398.672 165.531 397.475 163.275L396.592 163.744ZM398.256 170.976H397.256C397.256 175.767 395.871 179.336 393.219 181.832L393.904 182.56L394.589 183.288C397.74 180.323 399.256 176.169 399.256 170.976H398.256ZM393.904 182.56L393.224 181.826C390.581 184.276 386.477 185.592 380.72 185.592V186.592V187.592C386.739 187.592 391.425 186.22 394.584 183.294L393.904 182.56ZM380.72 186.592V185.592H378.224V186.592V187.592H380.72V186.592ZM378.224 186.592H377.224V204H378.224H379.224V186.592H378.224ZM378.224 204V203H370.992V204V205H378.224V204ZM378.224 180.256V181.256H380.912V180.256V179.256H378.224V180.256ZM380.912 180.256V181.256C383.805 181.256 386.157 180.801 387.837 179.763L387.312 178.912L386.787 178.061C385.566 178.815 383.651 179.256 380.912 179.256V180.256ZM387.312 178.912L387.837 179.763C389.435 178.776 390.583 177.51 391.189 175.945L390.256 175.584L389.323 175.223C388.905 176.304 388.09 177.256 386.787 178.061L387.312 178.912ZM390.256 175.584L391.189 175.945C391.739 174.524 392.024 173.121 392.024 171.744H391.024H390.024C390.024 172.841 389.797 173.999 389.323 175.223L390.256 175.584ZM391.024 171.744H392.024C392.024 170.124 391.722 168.601 391.11 167.186L390.192 167.584L389.274 167.982C389.771 169.127 390.024 170.378 390.024 171.744H391.024ZM390.192 167.584L391.11 167.186C390.46 165.687 389.343 164.491 387.823 163.588L387.312 164.448L386.801 165.308C388.012 166.027 388.815 166.921 389.274 167.982L390.192 167.584ZM387.312 164.448L387.823 163.588C386.239 162.648 384.115 162.232 381.552 162.232V163.232V164.232C383.939 164.232 385.654 164.627 386.801 165.308L387.312 164.448ZM381.552 163.232V162.232H378.224V163.232V164.232H381.552V163.232ZM378.224 163.232H377.224V180.256H378.224H379.224V163.232H378.224ZM406.812 202.784L406.185 203.563L406.185 203.563L406.812 202.784ZM403.677 197.856L402.706 198.099L402.709 198.108L402.711 198.117L403.677 197.856ZM402.909 174.624V173.624H401.909V174.624H402.909ZM409.821 174.624H410.821V173.624H409.821V174.624ZM410.205 194.848L409.221 195.027L409.223 195.041L409.226 195.056L410.205 194.848ZM411.869 197.984L411.224 198.749L411.246 198.767L411.269 198.784L411.869 197.984ZM419.037 197.984L419.551 198.842L419.561 198.836L419.037 197.984ZM421.789 195.232L422.635 195.765L422.639 195.758L422.643 195.751L421.789 195.232ZM422.877 174.624V173.624H421.877V174.624H422.877ZM429.725 174.624H430.725V173.624H429.725V174.624ZM429.725 204V205H430.725V204H429.725ZM424.093 204L423.108 204.176L423.256 205H424.093V204ZM423.325 199.712L424.309 199.536L423.867 197.068L422.489 199.162L423.325 199.712ZM419.357 203.424L419.813 204.314L419.823 204.309L419.832 204.304L419.357 203.424ZM413.533 204.64V203.64C410.709 203.64 408.729 203.044 407.44 202.005L406.812 202.784L406.185 203.563C407.968 204.999 410.468 205.64 413.533 205.64V204.64ZM406.812 202.784L407.44 202.005C406.081 200.911 405.146 199.455 404.642 197.595L403.677 197.856L402.711 198.117C403.317 200.353 404.472 202.183 406.185 203.563L406.812 202.784ZM403.677 197.856L404.647 197.613C404.158 195.657 403.909 193.479 403.909 191.072H402.909H401.909C401.909 193.615 402.171 195.959 402.706 198.099L403.677 197.856ZM402.909 191.072H403.909V174.624H402.909H401.909V191.072H402.909ZM402.909 174.624V175.624H409.821V174.624V173.624H402.909V174.624ZM409.821 174.624H408.821V189.344H409.821H410.821V174.624H409.821ZM409.821 189.344H408.821C408.821 191.635 408.95 193.536 409.221 195.027L410.205 194.848L411.188 194.669C410.947 193.344 410.821 191.576 410.821 189.344H409.821ZM410.205 194.848L409.226 195.056C409.555 196.604 410.191 197.879 411.224 198.749L411.869 197.984L412.513 197.219C411.924 196.724 411.452 195.908 411.183 194.64L410.205 194.848ZM411.869 197.984L411.269 198.784C412.368 199.608 413.878 199.944 415.645 199.944V198.944V197.944C414.083 197.944 413.076 197.64 412.469 197.184L411.869 197.984ZM415.645 198.944V199.944C417.028 199.944 418.336 199.571 419.551 198.841L419.037 197.984L418.522 197.127C417.604 197.677 416.65 197.944 415.645 197.944V198.944ZM419.037 197.984L419.561 198.836C420.806 198.069 421.832 197.04 422.635 195.765L421.789 195.232L420.942 194.699C420.295 195.728 419.485 196.534 418.512 197.132L419.037 197.984ZM421.789 195.232L422.643 195.751C423.467 194.394 423.877 192.89 423.877 191.264H422.877H421.877C421.877 192.539 421.56 193.681 420.934 194.713L421.789 195.232ZM422.877 191.264H423.877V174.624H422.877H421.877V191.264H422.877ZM422.877 174.624V175.624H429.725V174.624V173.624H422.877V174.624ZM429.725 174.624H428.725V204H429.725H430.725V174.624H429.725ZM429.725 204V203H424.093V204V205H429.725V204ZM424.093 204L425.077 203.824L424.309 199.536L423.325 199.712L422.34 199.888L423.108 204.176L424.093 204ZM423.325 199.712L422.489 199.162C421.506 200.657 420.303 201.776 418.881 202.544L419.357 203.424L419.832 204.304C421.568 203.365 423.01 202.009 424.16 200.262L423.325 199.712ZM419.357 203.424L418.9 202.534C417.498 203.254 415.723 203.64 413.533 203.64V204.64V205.64C415.95 205.64 418.058 205.215 419.813 204.314L419.357 203.424ZM438.058 204H437.058V205H438.058V204ZM438.058 156.96V155.96H437.058V156.96H438.058ZM444.906 156.96H445.906V155.96H444.906V156.96ZM444.906 204V205H445.906V204H444.906ZM438.058 204H439.058V156.96H438.058H437.058V204H438.058ZM438.058 156.96V157.96H444.906V156.96V155.96H438.058V156.96ZM444.906 156.96H443.906V204H444.906H445.906V156.96H444.906ZM444.906 204V203H438.058V204V205H444.906V204ZM458.993 204.256L458.819 205.241L458.824 205.242L458.993 204.256ZM454.961 203.296L454.625 204.238L454.644 204.245L454.665 204.251L454.961 203.296ZM452.209 201.952L451.288 201.562L450.98 202.291L451.618 202.758L452.209 201.952ZM454.513 196.512L455.09 195.695L454.076 194.98L453.592 196.122L454.513 196.512ZM457.777 198.24L457.373 199.155L457.383 199.159L457.777 198.24ZM467.185 198.368L467.816 199.144L467.83 199.133L467.844 199.121L467.185 198.368ZM467.313 194.464L466.667 195.227L466.698 195.254L466.732 195.278L467.313 194.464ZM464.881 193.184L465.22 192.243L465.22 192.243L464.881 193.184ZM461.105 191.776L460.714 192.697L460.731 192.704L460.748 192.71L461.105 191.776ZM457.073 189.728L456.538 190.573L456.548 190.579L456.559 190.585L457.073 189.728ZM453.937 186.784L453.096 187.325L453.107 187.342L453.119 187.359L453.937 186.784ZM455.985 176.096L456.547 176.923L456.558 176.915L455.985 176.096ZM469.617 174.432L469.392 175.406L469.397 175.408L469.617 174.432ZM473.457 175.904L474.368 176.317L474.711 175.561L474.03 175.085L473.457 175.904ZM470.961 181.408L470.254 182.115L471.275 183.136L471.872 181.821L470.961 181.408ZM468.401 180L468.054 180.938L468.065 180.942L468.401 180ZM460.657 184.288L460.002 185.044L460.029 185.067L460.057 185.088L460.657 184.288ZM463.281 185.632L462.942 186.573L462.964 186.581L462.987 186.588L463.281 185.632ZM466.865 186.912L466.494 187.84L466.499 187.843L466.865 186.912ZM472.817 190.496L472.11 191.203L472.121 191.214L472.132 191.225L472.817 190.496ZM473.329 200.8L472.551 200.172L472.551 200.172L473.329 200.8ZM469.041 203.744L469.364 204.69L469.377 204.686L469.041 203.744ZM463.281 204.64V203.64C461.978 203.64 460.605 203.518 459.162 203.27L458.993 204.256L458.824 205.242C460.367 205.506 461.853 205.64 463.281 205.64V204.64ZM458.993 204.256L459.167 203.271C457.752 203.022 456.45 202.711 455.257 202.341L454.961 203.296L454.665 204.251C455.947 204.649 457.333 204.978 458.819 205.241L458.993 204.256ZM454.961 203.296L455.297 202.354C454.146 201.943 453.33 201.534 452.8 201.146L452.209 201.952L451.618 202.758C452.368 203.309 453.386 203.796 454.625 204.238L454.961 203.296ZM452.209 201.952L453.13 202.342L455.434 196.902L454.513 196.512L453.592 196.122L451.288 201.562L452.209 201.952ZM454.513 196.512L453.936 197.329C454.742 197.898 455.901 198.505 457.373 199.155L457.777 198.24L458.181 197.325C456.751 196.695 455.734 196.15 455.09 195.695L454.513 196.512ZM457.777 198.24L457.383 199.159C459.035 199.867 461.013 200.2 463.281 200.2V199.2V198.2C461.197 198.2 459.505 197.893 458.171 197.321L457.777 198.24ZM463.281 199.2V200.2C464.283 200.2 465.163 200.128 465.905 199.97C466.638 199.814 467.305 199.559 467.816 199.144L467.185 198.368L466.554 197.592C466.383 197.731 466.057 197.893 465.489 198.014C464.929 198.133 464.199 198.2 463.281 198.2V199.2ZM467.185 198.368L467.844 199.121C468.7 198.371 469.209 197.429 469.209 196.32H468.209H467.209C467.209 196.747 467.035 197.17 466.526 197.615L467.185 198.368ZM468.209 196.32H469.209C469.209 195.226 468.785 194.286 467.894 193.65L467.313 194.464L466.732 195.278C467.036 195.495 467.209 195.793 467.209 196.32H468.209ZM467.313 194.464L467.959 193.701C467.277 193.124 466.343 192.647 465.22 192.243L464.881 193.184L464.542 194.125C465.553 194.489 466.24 194.866 466.667 195.227L467.313 194.464ZM464.881 193.184L465.22 192.243C464.161 191.862 462.909 191.395 461.462 190.842L461.105 191.776L460.748 192.71C462.203 193.266 463.468 193.738 464.542 194.125L464.881 193.184ZM461.105 191.776L461.496 190.855C460.129 190.276 458.827 189.614 457.587 188.871L457.073 189.728L456.559 190.585C457.879 191.378 459.265 192.082 460.714 192.697L461.105 191.776ZM457.073 189.728L457.608 188.883C456.431 188.137 455.484 187.245 454.755 186.209L453.937 186.784L453.119 187.359C454.011 188.627 455.155 189.697 456.538 190.573L457.073 189.728ZM453.937 186.784L454.778 186.243C454.133 185.24 453.785 183.986 453.785 182.432H452.785H451.785C451.785 184.291 452.205 185.939 453.096 187.325L453.937 186.784ZM452.785 182.432H453.785C453.785 179.96 454.711 178.171 456.547 176.923L455.985 176.096L455.423 175.269C452.992 176.922 451.785 179.357 451.785 182.432H452.785ZM455.985 176.096L456.558 176.915C458.475 175.574 461.07 174.856 464.433 174.856V173.856V172.856C460.798 172.856 457.762 173.631 455.412 175.277L455.985 176.096ZM464.433 173.856V174.856C466.153 174.856 467.805 175.04 469.392 175.406L469.617 174.432L469.842 173.458C468.101 173.056 466.297 172.856 464.433 172.856V173.856ZM469.617 174.432L469.397 175.408C471.052 175.78 472.185 176.235 472.884 176.723L473.457 175.904L474.03 175.085C473.022 174.379 471.596 173.852 469.837 173.456L469.617 174.432ZM473.457 175.904L472.546 175.491L470.05 180.995L470.961 181.408L471.872 181.821L474.368 176.317L473.457 175.904ZM470.961 181.408L471.668 180.701C471 180.033 469.982 179.503 468.737 179.058L468.401 180L468.065 180.942C469.21 181.351 469.898 181.759 470.254 182.115L470.961 181.408ZM468.401 180L468.748 179.062C467.456 178.584 465.945 178.36 464.241 178.36V179.36V180.36C465.78 180.36 467.042 180.563 468.054 180.938L468.401 180ZM464.241 179.36V178.36C462.658 178.36 461.304 178.594 460.315 179.193C459.245 179.84 458.697 180.86 458.697 182.112H459.697H460.697C460.697 181.529 460.906 181.173 461.351 180.903C461.877 180.585 462.795 180.36 464.241 180.36V179.36ZM459.697 182.112H458.697C458.697 183.279 459.129 184.287 460.002 185.044L460.657 184.288L461.312 183.532C460.905 183.18 460.697 182.737 460.697 182.112H459.697ZM460.657 184.288L460.057 185.088C460.84 185.676 461.811 186.166 462.942 186.573L463.281 185.632L463.62 184.691C462.618 184.33 461.839 183.924 461.257 183.488L460.657 184.288ZM463.281 185.632L462.987 186.588C464.066 186.92 465.234 187.337 466.494 187.84L466.865 186.912L467.236 185.984C465.936 185.463 464.715 185.027 463.575 184.676L463.281 185.632ZM466.865 186.912L466.499 187.843C469.026 188.837 470.875 189.968 472.11 191.203L472.817 190.496L473.524 189.789C472.028 188.293 469.909 187.035 467.231 185.981L466.865 186.912ZM472.817 190.496L472.132 191.225C473.309 192.33 473.929 193.82 473.929 195.808H474.929H475.929C475.929 193.358 475.141 191.308 473.502 189.767L472.817 190.496ZM474.929 195.808H473.929C473.929 197.628 473.449 199.058 472.551 200.172L473.329 200.8L474.107 201.428C475.342 199.897 475.929 197.999 475.929 195.808H474.929ZM473.329 200.8L472.551 200.172C471.613 201.335 470.345 202.217 468.705 202.802L469.041 203.744L469.377 204.686C471.321 203.991 472.912 202.91 474.107 201.428L473.329 200.8ZM469.041 203.744L468.718 202.798C467.085 203.355 465.276 203.64 463.281 203.64V204.64V205.64C465.467 205.64 467.498 205.328 469.364 204.69L469.041 203.744ZM486.41 202.528L485.877 203.374L485.888 203.381L486.41 202.528ZM481.354 196.832L482.264 196.418L481.354 196.832ZM481.674 181.088L480.806 180.59L480.799 180.602L481.674 181.088ZM487.114 175.776L487.587 176.657L487.593 176.654L487.599 176.65L487.114 175.776ZM505.098 177.76L504.324 178.394L504.329 178.4L505.098 177.76ZM508.106 191.712V192.712H509.007L509.1 191.815L508.106 191.712ZM486.986 191.712V190.712H485.792L486.001 191.887L486.986 191.712ZM489.802 197.408L489.168 198.182L489.181 198.192L489.194 198.202L489.802 197.408ZM504.266 197.152L505.185 196.758L504.767 195.783L503.818 196.258L504.266 197.152ZM506.378 202.08L506.922 202.918L507.628 202.46L507.297 201.686L506.378 202.08ZM502.41 203.808L502.705 204.763L502.715 204.76L502.726 204.757L502.41 203.808ZM486.986 186.912L485.994 186.78L485.843 187.912H486.986V186.912ZM501.578 186.912V187.912H502.562L502.577 186.927L501.578 186.912ZM499.722 181.216L499.097 181.997L499.097 181.997L499.722 181.216ZM489.482 181.408L490.124 182.174L490.126 182.172L489.482 181.408ZM495.37 204.64V203.64C491.82 203.64 489.031 202.958 486.931 201.675L486.41 202.528L485.888 203.381C488.396 204.914 491.58 205.64 495.37 205.64V204.64ZM486.41 202.528L486.942 201.682C484.794 200.329 483.245 198.577 482.264 196.418L481.354 196.832L480.443 197.246C481.595 199.781 483.417 201.826 485.877 203.374L486.41 202.528ZM481.354 196.832L482.264 196.418C481.258 194.205 480.754 191.85 480.754 189.344H479.754H478.754C478.754 192.128 479.316 194.766 480.443 197.246L481.354 196.832ZM479.754 189.344H480.754C480.754 186.278 481.366 183.7 482.548 181.574L481.674 181.088L480.799 180.602C479.421 183.084 478.754 186.01 478.754 189.344H479.754ZM481.674 181.088L482.541 181.586C483.772 179.441 485.45 177.804 487.587 176.657L487.114 175.776L486.64 174.895C484.169 176.222 482.22 178.127 480.806 180.59L481.674 181.088ZM487.114 175.776L487.599 176.65C489.74 175.461 492.173 174.856 494.922 174.856V173.856V172.856C491.868 172.856 489.095 173.531 486.628 174.902L487.114 175.776ZM494.922 173.856V174.856C499.393 174.856 502.446 176.102 504.324 178.394L505.098 177.76L505.871 177.126C503.483 174.212 499.751 172.856 494.922 172.856V173.856ZM505.098 177.76L504.329 178.4C506.272 180.732 507.298 183.937 507.298 188.128H508.298H509.298C509.298 183.615 508.189 179.908 505.866 177.12L505.098 177.76ZM508.298 188.128H507.298C507.298 189.243 507.236 190.403 507.111 191.609L508.106 191.712L509.1 191.815C509.231 190.546 509.298 189.317 509.298 188.128H508.298ZM508.106 191.712V190.712H486.986V191.712V192.712H508.106V191.712ZM486.986 191.712L486.001 191.887C486.493 194.658 487.505 196.821 489.168 198.182L489.802 197.408L490.435 196.634C489.282 195.691 488.417 194.056 487.97 191.537L486.986 191.712ZM489.802 197.408L489.194 198.202C490.866 199.481 493.02 200.072 495.562 200.072V199.072V198.072C493.324 198.072 491.638 197.554 490.409 196.614L489.802 197.408ZM495.562 199.072V200.072C497.911 200.072 499.843 199.856 501.309 199.384L501.002 198.432L500.694 197.48C499.515 197.861 497.82 198.072 495.562 198.072V199.072ZM501.002 198.432L501.309 199.384C502.66 198.948 503.799 198.503 504.713 198.046L504.266 197.152L503.818 196.258C503.025 196.654 501.989 197.063 500.694 197.48L501.002 198.432ZM504.266 197.152L503.346 197.546L505.458 202.474L506.378 202.08L507.297 201.686L505.185 196.758L504.266 197.152ZM506.378 202.08L505.833 201.242C505.087 201.726 503.861 202.27 502.093 202.859L502.41 203.808L502.726 204.757C504.542 204.151 505.961 203.543 506.922 202.918L506.378 202.08ZM502.41 203.808L502.114 202.853C500.455 203.366 498.219 203.64 495.37 203.64V204.64V205.64C498.323 205.64 500.78 205.359 502.705 204.763L502.41 203.808ZM486.986 186.912V187.912H501.578V186.912V185.912H486.986V186.912ZM501.578 186.912L502.577 186.927C502.622 184.054 501.994 181.753 500.346 180.435L499.722 181.216L499.097 181.997C500.009 182.727 500.619 184.223 500.578 186.897L501.578 186.912ZM499.722 181.216L500.346 180.435C498.848 179.237 496.947 178.68 494.73 178.68V179.68V180.68C496.608 180.68 498.035 181.147 499.097 181.997L499.722 181.216ZM494.73 179.68V178.68C492.408 178.68 490.416 179.311 488.837 180.644L489.482 181.408L490.126 182.172C491.278 181.201 492.784 180.68 494.73 180.68V179.68ZM489.482 181.408L488.839 180.642C487.249 181.975 486.353 184.092 485.994 186.78L486.986 186.912L487.977 187.044C488.301 184.612 489.069 183.059 490.124 182.174L489.482 181.408Z" fill="#7C3AED" mask="url(#path-4-outside-1_2_42)"/>
</g>
<g filter="url(#filter1_d_2_42)">
<path d="M209.736 205L187.976 157.96H196.104L210.184 190.28L224.328 157.96H232.392L210.696 205H209.736ZM235.931 205V175.624H243.099V205H235.931ZM239.515 170.12C238.192 170.12 237.083 169.672 236.187 168.776C235.334 167.88 234.907 166.771 234.907 165.448C234.907 164.253 235.334 163.229 236.187 162.376C237.083 161.523 238.192 161.096 239.515 161.096C240.838 161.096 241.926 161.523 242.779 162.376C243.675 163.229 244.123 164.253 244.123 165.448C244.123 166.771 243.675 167.88 242.779 168.776C241.926 169.672 240.838 170.12 239.515 170.12ZM251.29 205V175.624H258.202V181.384C258.884 179.464 259.972 177.907 261.466 176.712C263.002 175.475 264.772 174.856 266.778 174.856C268.143 174.856 269.082 174.984 269.594 175.24L268.634 182.216C268.25 181.96 267.418 181.832 266.138 181.832C265.071 181.832 263.919 182.067 262.682 182.536C261.444 183.005 260.378 183.837 259.482 185.032C258.628 186.184 258.202 187.805 258.202 189.896V205H251.29ZM287.182 205.64C283.513 205.64 280.526 204.936 278.222 203.528C275.918 202.077 274.233 200.179 273.166 197.832C272.099 195.485 271.566 192.989 271.566 190.344C271.566 187.144 272.206 184.392 273.486 182.088C274.809 179.784 276.622 178.013 278.926 176.776C281.23 175.496 283.833 174.856 286.734 174.856C291.385 174.856 294.777 176.157 296.91 178.76C299.043 181.32 300.11 184.776 300.11 189.128C300.11 190.28 300.046 191.475 299.918 192.712H278.798C279.267 195.357 280.206 197.256 281.614 198.408C283.065 199.517 284.985 200.072 287.374 200.072C289.678 200.072 291.491 199.859 292.814 199.432C294.137 199.005 295.225 198.579 296.078 198.152L298.19 203.08C297.337 203.635 296.014 204.211 294.222 204.808C292.43 205.363 290.083 205.64 287.182 205.64ZM278.798 187.912H293.39C293.433 185.139 292.814 183.24 291.534 182.216C290.254 181.192 288.59 180.68 286.542 180.68C284.409 180.68 282.659 181.256 281.294 182.408C279.971 183.517 279.139 185.352 278.798 187.912ZM303.017 205L314.025 189.768L303.721 175.624H311.913L317.929 184.712L323.625 175.624H332.009L321.641 189.384L332.905 205H324.969L317.993 194.632L311.337 205H303.017ZM356.129 157.896H356.833L379.489 205H371.233L367.201 195.784H345.633L341.601 205H333.601L356.129 157.896ZM356.449 171.528L353.633 177.928L348.513 189.32H364.385L359.329 177.992L356.577 171.528H356.449Z" fill="white"/>
</g>
<path d="M201.54 241V226.3H208.44V228.24H203.76V232.4H207.4V234.36H203.76V241H201.54ZM210.428 241V226.3H212.568V241H210.428ZM219.627 241.2C218.481 241.2 217.547 240.98 216.827 240.54C216.107 240.087 215.581 239.493 215.247 238.76C214.914 238.027 214.747 237.247 214.747 236.42C214.747 235.42 214.947 234.56 215.347 233.84C215.761 233.12 216.327 232.567 217.047 232.18C217.767 231.78 218.581 231.58 219.487 231.58C220.941 231.58 222.001 231.987 222.667 232.8C223.334 233.6 223.667 234.68 223.667 236.04C223.667 236.4 223.647 236.773 223.607 237.16H217.007C217.154 237.987 217.447 238.58 217.887 238.94C218.341 239.287 218.941 239.46 219.687 239.46C220.407 239.46 220.974 239.393 221.387 239.26C221.801 239.127 222.141 238.993 222.407 238.86L223.067 240.4C222.801 240.573 222.387 240.753 221.827 240.94C221.267 241.113 220.534 241.2 219.627 241.2ZM217.007 235.66H221.567C221.581 234.793 221.387 234.2 220.987 233.88C220.587 233.56 220.067 233.4 219.427 233.4C218.761 233.4 218.214 233.58 217.787 233.94C217.374 234.287 217.114 234.86 217.007 235.66ZM224.575 241L228.015 236.24L224.795 231.82H227.355L229.235 234.66L231.015 231.82H233.635L230.395 236.12L233.915 241H231.435L229.255 237.76L227.175 241H224.575ZM235.701 241V231.82H237.941V241H235.701ZM236.821 230.1C236.408 230.1 236.061 229.96 235.781 229.68C235.514 229.4 235.381 229.053 235.381 228.64C235.381 228.267 235.514 227.947 235.781 227.68C236.061 227.413 236.408 227.28 236.821 227.28C237.234 227.28 237.574 227.413 237.841 227.68C238.121 227.947 238.261 228.267 238.261 228.64C238.261 229.053 238.121 229.4 237.841 229.68C237.574 229.96 237.234 230.1 236.821 230.1ZM246.079 241.2C245.545 241.2 245.059 241.113 244.619 240.94C244.179 240.753 243.805 240.52 243.499 240.24C243.205 239.96 242.985 239.673 242.839 239.38L242.799 241H240.719V226.3H242.839V231.96L242.739 233.52C242.885 233.173 243.132 232.853 243.479 232.56C243.825 232.267 244.232 232.033 244.699 231.86C245.179 231.673 245.685 231.58 246.219 231.58C247.139 231.58 247.932 231.787 248.599 232.2C249.265 232.6 249.779 233.167 250.139 233.9C250.499 234.62 250.679 235.46 250.679 236.42C250.679 237.42 250.465 238.28 250.039 239C249.612 239.707 249.052 240.253 248.359 240.64C247.665 241.013 246.905 241.2 246.079 241.2ZM245.719 239.4C246.625 239.4 247.299 239.113 247.739 238.54C248.192 237.967 248.419 237.26 248.419 236.42C248.419 235.553 248.192 234.84 247.739 234.28C247.299 233.707 246.625 233.42 245.719 233.42C245.239 233.42 244.792 233.54 244.379 233.78C243.965 234.007 243.632 234.333 243.379 234.76C243.139 235.187 243.019 235.693 243.019 236.28V236.42C243.032 237.007 243.159 237.527 243.399 237.98C243.639 238.433 243.959 238.787 244.359 239.04C244.772 239.28 245.225 239.4 245.719 239.4ZM252.889 241V226.3H255.029V241H252.889ZM262.088 241.2C260.941 241.2 260.008 240.98 259.288 240.54C258.568 240.087 258.041 239.493 257.708 238.76C257.375 238.027 257.208 237.247 257.208 236.42C257.208 235.42 257.408 234.56 257.808 233.84C258.221 233.12 258.788 232.567 259.508 232.18C260.228 231.78 261.041 231.58 261.948 231.58C263.401 231.58 264.461 231.987 265.128 232.8C265.795 233.6 266.128 234.68 266.128 236.04C266.128 236.4 266.108 236.773 266.068 237.16H259.468C259.615 237.987 259.908 238.58 260.348 238.94C260.801 239.287 261.401 239.46 262.148 239.46C262.868 239.46 263.435 239.393 263.848 239.26C264.261 239.127 264.601 238.993 264.868 238.86L265.528 240.4C265.261 240.573 264.848 240.753 264.288 240.94C263.728 241.113 262.995 241.2 262.088 241.2ZM259.468 235.66H264.028C264.041 234.793 263.848 234.2 263.448 233.88C263.048 233.56 262.528 233.4 261.888 233.4C261.221 233.4 260.675 233.58 260.248 233.94C259.835 234.287 259.575 234.86 259.468 235.66ZM277.355 241.2C276.542 241.2 275.782 241.007 275.075 240.62C274.382 240.233 273.822 239.68 273.395 238.96C272.968 238.24 272.755 237.38 272.755 236.38C272.755 235.42 272.935 234.58 273.295 233.86C273.668 233.14 274.188 232.58 274.855 232.18C275.535 231.78 276.342 231.58 277.275 231.58C277.835 231.58 278.342 231.68 278.795 231.88C279.262 232.067 279.648 232.3 279.955 232.58C280.275 232.847 280.488 233.107 280.595 233.36L280.635 231.82H282.695V241H280.655L280.615 239.38C280.482 239.673 280.255 239.96 279.935 240.24C279.628 240.52 279.255 240.753 278.815 240.94C278.375 241.113 277.888 241.2 277.355 241.2ZM277.715 239.4C278.208 239.4 278.655 239.287 279.055 239.06C279.468 238.82 279.795 238.487 280.035 238.06C280.288 237.633 280.415 237.127 280.415 236.54V236.4C280.415 235.8 280.288 235.28 280.035 234.84C279.795 234.387 279.468 234.04 279.055 233.8C278.655 233.547 278.208 233.42 277.715 233.42C276.822 233.42 276.148 233.707 275.695 234.28C275.255 234.853 275.035 235.56 275.035 236.4C275.035 237.253 275.255 237.967 275.695 238.54C276.148 239.113 276.822 239.4 277.715 239.4ZM285.268 241V231.82H287.388L287.408 233.5C287.648 232.953 288.034 232.5 288.568 232.14C289.114 231.767 289.768 231.58 290.528 231.58C291.514 231.58 292.254 231.787 292.748 232.2C293.241 232.6 293.568 233.173 293.728 233.92C293.901 234.667 293.988 235.553 293.988 236.58V241H291.828V236.64C291.828 235.573 291.721 234.76 291.508 234.2C291.308 233.64 290.834 233.36 290.088 233.36C289.701 233.36 289.301 233.48 288.888 233.72C288.474 233.96 288.128 234.307 287.848 234.76C287.568 235.213 287.428 235.773 287.428 236.44V241H285.268ZM300.636 241.2C299.823 241.2 299.063 241.007 298.356 240.62C297.663 240.233 297.103 239.68 296.676 238.96C296.25 238.24 296.036 237.38 296.036 236.38C296.036 235.407 296.216 234.567 296.576 233.86C296.95 233.14 297.47 232.58 298.136 232.18C298.816 231.78 299.623 231.58 300.556 231.58C301.09 231.58 301.59 231.673 302.056 231.86C302.523 232.033 302.923 232.267 303.256 232.56C303.59 232.853 303.83 233.173 303.976 233.52L303.876 231.96V226.3H305.996V241H303.936L303.896 239.38C303.763 239.673 303.536 239.96 303.216 240.24C302.91 240.52 302.536 240.753 302.096 240.94C301.656 241.113 301.17 241.2 300.636 241.2ZM300.996 239.38C301.49 239.38 301.936 239.267 302.336 239.04C302.75 238.8 303.076 238.467 303.316 238.04C303.57 237.613 303.696 237.107 303.696 236.52V236.38C303.696 235.78 303.57 235.26 303.316 234.82C303.076 234.367 302.75 234.02 302.336 233.78C301.936 233.527 301.49 233.4 300.996 233.4C300.103 233.4 299.43 233.687 298.976 234.26C298.536 234.833 298.316 235.54 298.316 236.38C298.316 237.233 298.536 237.947 298.976 238.52C299.43 239.093 300.103 239.38 300.996 239.38ZM318.044 241.2C317.15 241.2 316.337 241.007 315.604 240.62C314.884 240.233 314.304 239.673 313.864 238.94C313.437 238.207 313.224 237.327 313.224 236.3C313.224 235.34 313.417 234.507 313.804 233.8C314.204 233.093 314.757 232.547 315.464 232.16C316.184 231.773 317.01 231.58 317.944 231.58C318.717 231.58 319.35 231.68 319.844 231.88C320.35 232.08 320.73 232.293 320.984 232.52L320.024 234.26C319.97 234.193 319.864 234.093 319.704 233.96C319.544 233.827 319.33 233.707 319.064 233.6C318.81 233.48 318.497 233.42 318.124 233.42C317.244 233.42 316.584 233.687 316.144 234.22C315.717 234.753 315.504 235.44 315.504 236.28C315.504 237.253 315.73 238.02 316.184 238.58C316.65 239.127 317.297 239.4 318.124 239.4C318.564 239.4 318.977 239.34 319.364 239.22C319.75 239.087 320.044 238.947 320.244 238.8L321.024 240.32C320.784 240.507 320.404 240.7 319.884 240.9C319.364 241.1 318.75 241.2 318.044 241.2ZM326.989 241.2C326.029 241.2 325.182 240.987 324.449 240.56C323.729 240.133 323.169 239.553 322.769 238.82C322.369 238.087 322.169 237.273 322.169 236.38C322.169 235.5 322.362 234.7 322.749 233.98C323.149 233.247 323.709 232.667 324.429 232.24C325.149 231.8 326.002 231.58 326.989 231.58C327.976 231.58 328.829 231.8 329.549 232.24C330.269 232.667 330.822 233.247 331.209 233.98C331.596 234.7 331.789 235.5 331.789 236.38C331.789 237.273 331.589 238.087 331.189 238.82C330.802 239.553 330.249 240.133 329.529 240.56C328.809 240.987 327.962 241.2 326.989 241.2ZM327.049 239.44C327.849 239.44 328.462 239.147 328.889 238.56C329.329 237.973 329.549 237.26 329.549 236.42C329.549 235.847 329.442 235.333 329.229 234.88C329.016 234.413 328.709 234.04 328.309 233.76C327.922 233.48 327.462 233.34 326.929 233.34C326.409 233.34 325.962 233.48 325.589 233.76C325.216 234.04 324.922 234.413 324.709 234.88C324.509 235.333 324.409 235.847 324.409 236.42C324.409 236.98 324.522 237.493 324.749 237.96C324.976 238.413 325.282 238.773 325.669 239.04C326.069 239.307 326.529 239.44 327.049 239.44ZM333.9 241V231.82H336.02L336.04 233.5C336.28 232.953 336.667 232.5 337.2 232.14C337.747 231.767 338.4 231.58 339.16 231.58C340.147 231.58 340.887 231.787 341.38 232.2C341.874 232.6 342.2 233.173 342.36 233.92C342.534 234.667 342.62 235.553 342.62 236.58V241H340.46V236.64C340.46 235.573 340.354 234.76 340.14 234.2C339.94 233.64 339.467 233.36 338.72 233.36C338.334 233.36 337.934 233.48 337.52 233.72C337.107 233.96 336.76 234.307 336.48 234.76C336.2 235.213 336.06 235.773 336.06 236.44V241H333.9ZM348.335 241L343.495 231.82H345.955L347.935 235.96L348.575 237.62L349.215 235.96L351.175 231.82H353.575L348.755 241H348.335ZM358.905 241.2C357.758 241.2 356.825 240.98 356.105 240.54C355.385 240.087 354.858 239.493 354.525 238.76C354.191 238.027 354.025 237.247 354.025 236.42C354.025 235.42 354.225 234.56 354.625 233.84C355.038 233.12 355.605 232.567 356.325 232.18C357.045 231.78 357.858 231.58 358.765 231.58C360.218 231.58 361.278 231.987 361.945 232.8C362.611 233.6 362.945 234.68 362.945 236.04C362.945 236.4 362.925 236.773 362.885 237.16H356.285C356.431 237.987 356.725 238.58 357.165 238.94C357.618 239.287 358.218 239.46 358.965 239.46C359.685 239.46 360.251 239.393 360.665 239.26C361.078 239.127 361.418 238.993 361.685 238.86L362.345 240.4C362.078 240.573 361.665 240.753 361.105 240.94C360.545 241.113 359.811 241.2 358.905 241.2ZM356.285 235.66H360.845C360.858 234.793 360.665 234.2 360.265 233.88C359.865 233.56 359.345 233.4 358.705 233.4C358.038 233.4 357.491 233.58 357.065 233.94C356.651 234.287 356.391 234.86 356.285 235.66ZM365.014 241V231.82H367.134L367.154 233.5C367.394 232.953 367.78 232.5 368.314 232.14C368.86 231.767 369.514 231.58 370.274 231.58C371.26 231.58 372 231.787 372.494 232.2C372.987 232.6 373.314 233.173 373.474 233.92C373.647 234.667 373.734 235.553 373.734 236.58V241H371.574V236.64C371.574 235.573 371.467 234.76 371.254 234.2C371.054 233.64 370.58 233.36 369.834 233.36C369.447 233.36 369.047 233.48 368.634 233.72C368.22 233.96 367.874 234.307 367.594 234.76C367.314 235.213 367.174 235.773 367.174 236.44V241H365.014ZM376.248 241V231.82H378.488V241H376.248ZM377.368 230.1C376.955 230.1 376.608 229.96 376.328 229.68C376.061 229.4 375.928 229.053 375.928 228.64C375.928 228.267 376.061 227.947 376.328 227.68C376.608 227.413 376.955 227.28 377.368 227.28C377.781 227.28 378.121 227.413 378.388 227.68C378.668 227.947 378.808 228.267 378.808 228.64C378.808 229.053 378.668 229.4 378.388 229.68C378.121 229.96 377.781 230.1 377.368 230.1ZM385.545 241.2C384.398 241.2 383.465 240.98 382.745 240.54C382.025 240.087 381.498 239.493 381.165 238.76C380.832 238.027 380.665 237.247 380.665 236.42C380.665 235.42 380.865 234.56 381.265 233.84C381.678 233.12 382.245 232.567 382.965 232.18C383.685 231.78 384.498 231.58 385.405 231.58C386.858 231.58 387.918 231.987 388.585 232.8C389.252 233.6 389.585 234.68 389.585 236.04C389.585 236.4 389.565 236.773 389.525 237.16H382.925C383.072 237.987 383.365 238.58 383.805 238.94C384.258 239.287 384.858 239.46 385.605 239.46C386.325 239.46 386.892 239.393 387.305 239.26C387.718 239.127 388.058 238.993 388.325 238.86L388.985 240.4C388.718 240.573 388.305 240.753 387.745 240.94C387.185 241.113 386.452 241.2 385.545 241.2ZM382.925 235.66H387.485C387.498 234.793 387.305 234.2 386.905 233.88C386.505 233.56 385.985 233.4 385.345 233.4C384.678 233.4 384.132 233.58 383.705 233.94C383.292 234.287 383.032 234.86 382.925 235.66ZM391.654 241V231.82H393.774L393.794 233.5C394.034 232.953 394.421 232.5 394.954 232.14C395.501 231.767 396.154 231.58 396.914 231.58C397.901 231.58 398.641 231.787 399.134 232.2C399.628 232.6 399.954 233.173 400.114 233.92C400.288 234.667 400.374 235.553 400.374 236.58V241H398.214V236.64C398.214 235.573 398.108 234.76 397.894 234.2C397.694 233.64 397.221 233.36 396.474 233.36C396.088 233.36 395.688 233.48 395.274 233.72C394.861 233.96 394.514 234.307 394.234 234.76C393.954 235.213 393.814 235.773 393.814 236.44V241H391.654ZM403.568 241V233.58H401.948V231.82H403.568V228.08L405.748 227.6V231.82H407.868V233.58H405.748V241H403.568ZM414.525 241V231.82H416.685V233.48C416.992 232.827 417.432 232.347 418.005 232.04C418.579 231.733 419.219 231.58 419.925 231.58C420.832 231.593 421.519 231.753 421.985 232.06C422.452 232.367 422.772 232.773 422.945 233.28C423.239 232.76 423.679 232.347 424.265 232.04C424.852 231.733 425.472 231.58 426.125 231.58C427.125 231.58 427.865 231.773 428.345 232.16C428.839 232.533 429.159 233.08 429.305 233.8C429.465 234.507 429.545 235.373 429.545 236.4V241H427.365V236.38C427.365 235.353 427.259 234.593 427.045 234.1C426.845 233.607 426.419 233.36 425.765 233.36C424.885 233.36 424.239 233.653 423.825 234.24C423.412 234.827 423.205 235.56 423.205 236.44V241H421.045V236.06C421.045 235.487 421.019 235 420.965 234.6C420.925 234.2 420.785 233.893 420.545 233.68C420.319 233.467 419.925 233.36 419.365 233.36C418.899 233.36 418.459 233.5 418.045 233.78C417.645 234.06 417.319 234.433 417.065 234.9C416.825 235.353 416.705 235.867 416.705 236.44V241H414.525ZM432.068 241V231.82H434.308V241H432.068ZM433.188 230.1C432.775 230.1 432.428 229.96 432.148 229.68C431.882 229.4 431.748 229.053 431.748 228.64C431.748 228.267 431.882 227.947 432.148 227.68C432.428 227.413 432.775 227.28 433.188 227.28C433.602 227.28 433.942 227.413 434.208 227.68C434.488 227.947 434.628 228.267 434.628 228.64C434.628 229.053 434.488 229.4 434.208 229.68C433.942 229.96 433.602 230.1 433.188 230.1ZM441.305 241.2C440.412 241.2 439.599 241.007 438.865 240.62C438.145 240.233 437.565 239.673 437.125 238.94C436.699 238.207 436.485 237.327 436.485 236.3C436.485 235.34 436.679 234.507 437.065 233.8C437.465 233.093 438.019 232.547 438.725 232.16C439.445 231.773 440.272 231.58 441.205 231.58C441.979 231.58 442.612 231.68 443.105 231.88C443.612 232.08 443.992 232.293 444.245 232.52L443.285 234.26C443.232 234.193 443.125 234.093 442.965 233.96C442.805 233.827 442.592 233.707 442.325 233.6C442.072 233.48 441.759 233.42 441.385 233.42C440.505 233.42 439.845 233.687 439.405 234.22C438.979 234.753 438.765 235.44 438.765 236.28C438.765 237.253 438.992 238.02 439.445 238.58C439.912 239.127 440.559 239.4 441.385 239.4C441.825 239.4 442.239 239.34 442.625 239.22C443.012 239.087 443.305 238.947 443.505 238.8L444.285 240.32C444.045 240.507 443.665 240.7 443.145 240.9C442.625 241.1 442.012 241.2 441.305 241.2ZM446.282 241V231.82H448.442V233.62C448.655 233.02 448.995 232.533 449.462 232.16C449.942 231.773 450.495 231.58 451.122 231.58C451.549 231.58 451.842 231.62 452.002 231.7L451.702 233.88C451.582 233.8 451.322 233.76 450.922 233.76C450.589 233.76 450.229 233.833 449.842 233.98C449.455 234.127 449.122 234.387 448.842 234.76C448.575 235.12 448.442 235.627 448.442 236.28V241H446.282ZM457.438 241.2C456.478 241.2 455.632 240.987 454.898 240.56C454.178 240.133 453.618 239.553 453.218 238.82C452.818 238.087 452.618 237.273 452.618 236.38C452.618 235.5 452.812 234.7 453.198 233.98C453.598 233.247 454.158 232.667 454.878 232.24C455.598 231.8 456.452 231.58 457.438 231.58C458.425 231.58 459.278 231.8 459.998 232.24C460.718 232.667 461.272 233.247 461.658 233.98C462.045 234.7 462.238 235.5 462.238 236.38C462.238 237.273 462.038 238.087 461.638 238.82C461.252 239.553 460.698 240.133 459.978 240.56C459.258 240.987 458.412 241.2 457.438 241.2ZM457.498 239.44C458.298 239.44 458.912 239.147 459.338 238.56C459.778 237.973 459.998 237.26 459.998 236.42C459.998 235.847 459.892 235.333 459.678 234.88C459.465 234.413 459.158 234.04 458.758 233.76C458.372 233.48 457.912 233.34 457.378 233.34C456.858 233.34 456.412 233.48 456.038 233.76C455.665 234.04 455.372 234.413 455.158 234.88C454.958 235.333 454.858 235.847 454.858 236.42C454.858 236.98 454.972 237.493 455.198 237.96C455.425 238.413 455.732 238.773 456.118 239.04C456.518 239.307 456.978 239.44 457.498 239.44ZM464.7 236.94V235.02H471.56V236.94H464.7ZM475.034 241V233.54H473.554V231.82H475.034V229.84C475.034 228.653 475.321 227.727 475.894 227.06C476.467 226.393 477.321 226.06 478.454 226.06C478.814 226.06 479.134 226.113 479.414 226.22C479.707 226.327 479.901 226.4 479.994 226.44L479.574 228.48C479.507 228.4 479.374 228.307 479.174 228.2C478.987 228.08 478.767 228.02 478.514 228.02C478.327 228.02 478.127 228.06 477.914 228.14C477.714 228.207 477.541 228.367 477.394 228.62C477.247 228.86 477.167 229.24 477.154 229.76V231.82H479.314V233.54H477.154V241H475.034ZM481.048 241V231.82H483.208V233.62C483.421 233.02 483.761 232.533 484.228 232.16C484.708 231.773 485.261 231.58 485.888 231.58C486.314 231.58 486.608 231.62 486.768 231.7L486.468 233.88C486.348 233.8 486.088 233.76 485.688 233.76C485.354 233.76 484.994 233.833 484.608 233.98C484.221 234.127 483.888 234.387 483.608 234.76C483.341 235.12 483.208 235.627 483.208 236.28V241H481.048ZM492.062 241.2C491.249 241.2 490.489 241.007 489.782 240.62C489.089 240.233 488.529 239.68 488.102 238.96C487.675 238.24 487.462 237.38 487.462 236.38C487.462 235.42 487.642 234.58 488.002 233.86C488.375 233.14 488.895 232.58 489.562 232.18C490.242 231.78 491.049 231.58 491.982 231.58C492.542 231.58 493.049 231.68 493.502 231.88C493.969 232.067 494.355 232.3 494.662 232.58C494.982 232.847 495.195 233.107 495.302 233.36L495.342 231.82H497.402V241H495.362L495.322 239.38C495.189 239.673 494.962 239.96 494.642 240.24C494.335 240.52 493.962 240.753 493.522 240.94C493.082 241.113 492.595 241.2 492.062 241.2ZM492.422 239.4C492.915 239.4 493.362 239.287 493.762 239.06C494.175 238.82 494.502 238.487 494.742 238.06C494.995 237.633 495.122 237.127 495.122 236.54V236.4C495.122 235.8 494.995 235.28 494.742 234.84C494.502 234.387 494.175 234.04 493.762 233.8C493.362 233.547 492.915 233.42 492.422 233.42C491.529 233.42 490.855 233.707 490.402 234.28C489.962 234.853 489.742 235.56 489.742 236.4C489.742 237.253 489.962 237.967 490.402 238.54C490.855 239.113 491.529 239.4 492.422 239.4ZM499.975 241V231.82H502.135V233.48C502.441 232.827 502.881 232.347 503.455 232.04C504.028 231.733 504.668 231.58 505.375 231.58C506.281 231.593 506.968 231.753 507.435 232.06C507.901 232.367 508.221 232.773 508.395 233.28C508.688 232.76 509.128 232.347 509.715 232.04C510.301 231.733 510.921 231.58 511.575 231.58C512.575 231.58 513.315 231.773 513.795 232.16C514.288 232.533 514.608 233.08 514.755 233.8C514.915 234.507 514.995 235.373 514.995 236.4V241H512.815V236.38C512.815 235.353 512.708 234.593 512.495 234.1C512.295 233.607 511.868 233.36 511.215 233.36C510.335 233.36 509.688 233.653 509.275 234.24C508.861 234.827 508.655 235.56 508.655 236.44V241H506.495V236.06C506.495 235.487 506.468 235 506.415 234.6C506.375 234.2 506.235 233.893 505.995 233.68C505.768 233.467 505.375 233.36 504.815 233.36C504.348 233.36 503.908 233.5 503.495 233.78C503.095 234.06 502.768 234.433 502.515 234.9C502.275 235.353 502.155 235.867 502.155 236.44V241H499.975ZM521.912 241.2C520.766 241.2 519.832 240.98 519.112 240.54C518.392 240.087 517.866 239.493 517.532 238.76C517.199 238.027 517.032 237.247 517.032 236.42C517.032 235.42 517.232 234.56 517.632 233.84C518.046 233.12 518.612 232.567 519.332 232.18C520.052 231.78 520.866 231.58 521.772 231.58C523.226 231.58 524.286 231.987 524.952 232.8C525.619 233.6 525.952 234.68 525.952 236.04C525.952 236.4 525.932 236.773 525.892 237.16H519.292C519.439 237.987 519.732 238.58 520.172 238.94C520.626 239.287 521.226 239.46 521.972 239.46C522.692 239.46 523.259 239.393 523.672 239.26C524.086 239.127 524.426 238.993 524.692 238.86L525.352 240.4C525.086 240.573 524.672 240.753 524.112 240.94C523.552 241.113 522.819 241.2 521.912 241.2ZM519.292 235.66H523.852C523.866 234.793 523.672 234.2 523.272 233.88C522.872 233.56 522.352 233.4 521.712 233.4C521.046 233.4 520.499 233.58 520.072 233.94C519.659 234.287 519.399 234.86 519.292 235.66ZM536.322 241L533.602 235.9L530.882 241H530.502L526.642 231.82H528.962L530.942 237.16L533.562 231.82H533.642L536.282 237.12L538.262 231.82H540.542L536.702 241H536.322ZM546.013 241.2C545.053 241.2 544.206 240.987 543.473 240.56C542.753 240.133 542.193 239.553 541.793 238.82C541.393 238.087 541.193 237.273 541.193 236.38C541.193 235.5 541.386 234.7 541.773 233.98C542.173 233.247 542.733 232.667 543.453 232.24C544.173 231.8 545.026 231.58 546.013 231.58C546.999 231.58 547.853 231.8 548.573 232.24C549.293 232.667 549.846 233.247 550.233 233.98C550.619 234.7 550.813 235.5 550.813 236.38C550.813 237.273 550.613 238.087 550.213 238.82C549.826 239.553 549.273 240.133 548.553 240.56C547.833 240.987 546.986 241.2 546.013 241.2ZM546.073 239.44C546.873 239.44 547.486 239.147 547.913 238.56C548.353 237.973 548.573 237.26 548.573 236.42C548.573 235.847 548.466 235.333 548.253 234.88C548.039 234.413 547.733 234.04 547.333 233.76C546.946 233.48 546.486 233.34 545.953 233.34C545.433 233.34 544.986 233.48 544.613 233.76C544.239 234.04 543.946 234.413 543.733 234.88C543.533 235.333 543.433 235.847 543.433 236.42C543.433 236.98 543.546 237.493 543.773 237.96C543.999 238.413 544.306 238.773 544.693 239.04C545.093 239.307 545.553 239.44 546.073 239.44ZM552.903 241V231.82H555.063V233.62C555.276 233.02 555.616 232.533 556.083 232.16C556.563 231.773 557.116 231.58 557.743 231.58C558.17 231.58 558.463 231.62 558.623 231.7L558.323 233.88C558.203 233.8 557.943 233.76 557.543 233.76C557.21 233.76 556.85 233.833 556.463 233.98C556.076 234.127 555.743 234.387 555.463 234.76C555.196 235.12 555.063 235.627 555.063 236.28V241H552.903ZM560.075 241V226.3H562.135V234.36L562.095 235.92L565.595 231.82H568.255L564.795 235.66L568.275 241H565.735L563.875 238L563.355 236.98L562.155 238.28V241H560.075Z" fill="white"/>
<defs>
<filter id="filter0_d_2_42" x="320.692" y="106.66" width="237.905" height="148.28" filterUnits="userSpaceOnUse" color-interpolation-filters="sRGB">
<feFlood flood-opacity="0" result="BackgroundImageFix"/>
<feColorMatrix in="SourceAlpha" type="matrix" values="0 0 0 0 0 0 0 0 0 0 0 0 0 0 0 0 0 0 127 0" result="hardAlpha"/>
<feOffset/>
<feGaussianBlur stdDeviation="24.65"/>
<feComposite in2="hardAlpha" operator="out"/>
<feColorMatrix type="matrix" values="0 0 0 0 0.486275 0 0 0 0 0.227451 0 0 0 0 0.929412 0 0 0 0.9 0"/>
<feBlend mode="normal" in2="BackgroundImageFix" result="effect1_dropShadow_2_42"/>
<feBlend mode="normal" in="SourceGraphic" in2="effect1_dropShadow_2_42" result="shape"/>
</filter>
<filter id="filter1_d_2_42" x="139.576" y="109.496" width="288.313" height="144.544" filterUnits="userSpaceOnUse" color-interpolation-filters="sRGB">
<feFlood flood-opacity="0" result="BackgroundImageFix"/>
<feColorMatrix in="SourceAlpha" type="matrix" values="0 0 0 0 0 0 0 0 0 0 0 0 0 0 0 0 0 0 127 0" result="hardAlpha"/>
<feOffset/>
<feGaussianBlur stdDeviation="24.2"/>
<feComposite in2="hardAlpha" operator="out"/>
<feColorMatrix type="matrix" values="0 0 0 0 0.486275 0 0 0 0 0.227451 0 0 0 0 0.929412 0 0 0 0.9 0"/>
<feBlend mode="normal" in2="BackgroundImageFix" result="effect1_dropShadow_2_42"/>
<feBlend mode="normal" in="SourceGraphic" in2="effect1_dropShadow_2_42" result="shape"/>
</filter>
</defs>
</svg>
