<svg width="585" height="297" viewBox="0 0 585 297" fill="none" xmlns="http://www.w3.org/2000/svg">
<g filter="url(#filter0_d_2_42)">
<path d="M179 21.5C250.134 21.5 307.87 78.8542 308.492 149.842C275.518 119.015 249.827 97.8359 229.981 84.3945C219.974 77.6162 211.442 72.7984 204.205 69.7031C196.972 66.6095 191.003 65.2241 186.131 65.3438C181.242 65.4638 177.458 67.0998 174.638 70.0254C171.83 72.9381 170.018 77.0875 168.975 82.1689C166.89 92.3217 167.841 106.383 170.305 122.326C172.77 138.284 176.761 156.191 180.796 174.06C184.832 191.935 188.911 209.771 191.562 225.613C194.214 241.469 195.424 255.264 193.756 265.076C192.922 269.979 191.379 273.834 188.989 276.457C186.615 279.063 183.364 280.5 179 280.5C107.479 280.5 49.5 222.521 49.5 151C49.5 79.4791 107.479 21.5 179 21.5Z" stroke="white"/>
<path d="M276 146C9 -104 217.797 276 146 276C74.203 276 16 217.797 16 146C16 74.203 74.203 16 146 16C217.797 16 276 74.203 276 146Z" fill="#7C3AED"/>
<line x1="276.075" y1="145.506" x2="309.075" y2="150.506" stroke="white"/>
</g>
<g filter="url(#filter1_d_2_42)">
<path d="M225.736 221L203.976 173.96H212.104L226.184 206.28L240.328 173.96H248.392L226.696 221H225.736ZM251.931 221V191.624H259.099V221H251.931ZM255.515 186.12C254.192 186.12 253.083 185.672 252.187 184.776C251.334 183.88 250.907 182.771 250.907 181.448C250.907 180.253 251.334 179.229 252.187 178.376C253.083 177.523 254.192 177.096 255.515 177.096C256.838 177.096 257.926 177.523 258.779 178.376C259.675 179.229 260.123 180.253 260.123 181.448C260.123 182.771 259.675 183.88 258.779 184.776C257.926 185.672 256.838 186.12 255.515 186.12ZM267.29 221V191.624H274.202V197.384C274.884 195.464 275.972 193.907 277.466 192.712C279.002 191.475 280.772 190.856 282.778 190.856C284.143 190.856 285.082 190.984 285.594 191.24L284.634 198.216C284.25 197.96 283.418 197.832 282.138 197.832C281.071 197.832 279.919 198.067 278.682 198.536C277.444 199.005 276.378 199.837 275.482 201.032C274.628 202.184 274.202 203.805 274.202 205.896V221H267.29ZM303.182 221.64C299.513 221.64 296.526 220.936 294.222 219.528C291.918 218.077 290.233 216.179 289.166 213.832C288.099 211.485 287.566 208.989 287.566 206.344C287.566 203.144 288.206 200.392 289.486 198.088C290.809 195.784 292.622 194.013 294.926 192.776C297.23 191.496 299.833 190.856 302.734 190.856C307.385 190.856 310.777 192.157 312.91 194.76C315.043 197.32 316.11 200.776 316.11 205.128C316.11 206.28 316.046 207.475 315.918 208.712H294.798C295.267 211.357 296.206 213.256 297.614 214.408C299.065 215.517 300.985 216.072 303.374 216.072C305.678 216.072 307.491 215.859 308.814 215.432C310.137 215.005 311.225 214.579 312.078 214.152L314.19 219.08C313.337 219.635 312.014 220.211 310.222 220.808C308.43 221.363 306.083 221.64 303.182 221.64ZM294.798 203.912H309.39C309.433 201.139 308.814 199.24 307.534 198.216C306.254 197.192 304.59 196.68 302.542 196.68C300.409 196.68 298.659 197.256 297.294 198.408C295.971 199.517 295.139 201.352 294.798 203.912ZM319.017 221L330.025 205.768L319.721 191.624H327.913L333.929 200.712L339.625 191.624H348.009L337.641 205.384L348.905 221H340.969L333.993 210.632L327.337 221H319.017ZM372.129 173.896H372.833L395.489 221H387.233L383.201 211.784H361.633L357.601 221H349.601L372.129 173.896ZM372.449 187.528L369.633 193.928L364.513 205.32H380.385L375.329 193.992L372.577 187.528H372.449Z" fill="white"/>
</g>
<path d="M217.54 257V242.3H224.44V244.24H219.76V248.4H223.4V250.36H219.76V257H217.54ZM226.428 257V242.3H228.568V257H226.428ZM235.627 257.2C234.481 257.2 233.547 256.98 232.827 256.54C232.107 256.087 231.581 255.493 231.247 254.76C230.914 254.027 230.747 253.247 230.747 252.42C230.747 251.42 230.947 250.56 231.347 249.84C231.761 249.12 232.327 248.567 233.047 248.18C233.767 247.78 234.581 247.58 235.487 247.58C236.941 247.58 238.001 247.987 238.667 248.8C239.334 249.6 239.667 250.68 239.667 252.04C239.667 252.4 239.647 252.773 239.607 253.16H233.007C233.154 253.987 233.447 254.58 233.887 254.94C234.341 255.287 234.941 255.46 235.687 255.46C236.407 255.46 236.974 255.393 237.387 255.26C237.801 255.127 238.141 254.993 238.407 254.86L239.067 256.4C238.801 256.573 238.387 256.753 237.827 256.94C237.267 257.113 236.534 257.2 235.627 257.2ZM233.007 251.66H237.567C237.581 250.793 237.387 250.2 236.987 249.88C236.587 249.56 236.067 249.4 235.427 249.4C234.761 249.4 234.214 249.58 233.787 249.94C233.374 250.287 233.114 250.86 233.007 251.66ZM240.575 257L244.015 252.24L240.795 247.82H243.355L245.235 250.66L247.015 247.82H249.635L246.395 252.12L249.915 257H247.435L245.255 253.76L243.175 257H240.575ZM251.701 257V247.82H253.941V257H251.701ZM252.821 246.1C252.408 246.1 252.061 245.96 251.781 245.68C251.514 245.4 251.381 245.053 251.381 244.64C251.381 244.267 251.514 243.947 251.781 243.68C252.061 243.413 252.408 243.28 252.821 243.28C253.234 243.28 253.574 243.413 253.841 243.68C254.121 243.947 254.261 244.267 254.261 244.64C254.261 245.053 254.121 245.4 253.841 245.68C253.574 245.96 253.234 246.1 252.821 246.1ZM262.079 257.2C261.545 257.2 261.059 257.113 260.619 256.94C260.179 256.753 259.805 256.52 259.499 256.24C259.205 255.96 258.985 255.673 258.839 255.38L258.799 257H256.719V242.3H258.839V247.96L258.739 249.52C258.885 249.173 259.132 248.853 259.479 248.56C259.825 248.267 260.232 248.033 260.699 247.86C261.179 247.673 261.685 247.58 262.219 247.58C263.139 247.58 263.932 247.787 264.599 248.2C265.265 248.6 265.779 249.167 266.139 249.9C266.499 250.62 266.679 251.46 266.679 252.42C266.679 253.42 266.465 254.28 266.039 255C265.612 255.707 265.052 256.253 264.359 256.64C263.665 257.013 262.905 257.2 262.079 257.2ZM261.719 255.4C262.625 255.4 263.299 255.113 263.739 254.54C264.192 253.967 264.419 253.26 264.419 252.42C264.419 251.553 264.192 250.84 263.739 250.28C263.299 249.707 262.625 249.42 261.719 249.42C261.239 249.42 260.792 249.54 260.379 249.78C259.965 250.007 259.632 250.333 259.379 250.76C259.139 251.187 259.019 251.693 259.019 252.28V252.42C259.032 253.007 259.159 253.527 259.399 253.98C259.639 254.433 259.959 254.787 260.359 255.04C260.772 255.28 261.225 255.4 261.719 255.4ZM268.889 257V242.3H271.029V257H268.889ZM278.088 257.2C276.941 257.2 276.008 256.98 275.288 256.54C274.568 256.087 274.041 255.493 273.708 254.76C273.375 254.027 273.208 253.247 273.208 252.42C273.208 251.42 273.408 250.56 273.808 249.84C274.221 249.12 274.788 248.567 275.508 248.18C276.228 247.78 277.041 247.58 277.948 247.58C279.401 247.58 280.461 247.987 281.128 248.8C281.795 249.6 282.128 250.68 282.128 252.04C282.128 252.4 282.108 252.773 282.068 253.16H275.468C275.615 253.987 275.908 254.58 276.348 254.94C276.801 255.287 277.401 255.46 278.148 255.46C278.868 255.46 279.435 255.393 279.848 255.26C280.261 255.127 280.601 254.993 280.868 254.86L281.528 256.4C281.261 256.573 280.848 256.753 280.288 256.94C279.728 257.113 278.995 257.2 278.088 257.2ZM275.468 251.66H280.028C280.041 250.793 279.848 250.2 279.448 249.88C279.048 249.56 278.528 249.4 277.888 249.4C277.221 249.4 276.675 249.58 276.248 249.94C275.835 250.287 275.575 250.86 275.468 251.66ZM293.355 257.2C292.542 257.2 291.782 257.007 291.075 256.62C290.382 256.233 289.822 255.68 289.395 254.96C288.968 254.24 288.755 253.38 288.755 252.38C288.755 251.42 288.935 250.58 289.295 249.86C289.668 249.14 290.188 248.58 290.855 248.18C291.535 247.78 292.342 247.58 293.275 247.58C293.835 247.58 294.342 247.68 294.795 247.88C295.262 248.067 295.648 248.3 295.955 248.58C296.275 248.847 296.488 249.107 296.595 249.36L296.635 247.82H298.695V257H296.655L296.615 255.38C296.482 255.673 296.255 255.96 295.935 256.24C295.628 256.52 295.255 256.753 294.815 256.94C294.375 257.113 293.888 257.2 293.355 257.2ZM293.715 255.4C294.208 255.4 294.655 255.287 295.055 255.06C295.468 254.82 295.795 254.487 296.035 254.06C296.288 253.633 296.415 253.127 296.415 252.54V252.4C296.415 251.8 296.288 251.28 296.035 250.84C295.795 250.387 295.468 250.04 295.055 249.8C294.655 249.547 294.208 249.42 293.715 249.42C292.822 249.42 292.148 249.707 291.695 250.28C291.255 250.853 291.035 251.56 291.035 252.4C291.035 253.253 291.255 253.967 291.695 254.54C292.148 255.113 292.822 255.4 293.715 255.4ZM301.268 257V247.82H303.388L303.408 249.5C303.648 248.953 304.034 248.5 304.568 248.14C305.114 247.767 305.768 247.58 306.528 247.58C307.514 247.58 308.254 247.787 308.748 248.2C309.241 248.6 309.568 249.173 309.728 249.92C309.901 250.667 309.988 251.553 309.988 252.58V257H307.828V252.64C307.828 251.573 307.721 250.76 307.508 250.2C307.308 249.64 306.834 249.36 306.088 249.36C305.701 249.36 305.301 249.48 304.888 249.72C304.474 249.96 304.128 250.307 303.848 250.76C303.568 251.213 303.428 251.773 303.428 252.44V257H301.268ZM316.636 257.2C315.823 257.2 315.063 257.007 314.356 256.62C313.663 256.233 313.103 255.68 312.676 254.96C312.25 254.24 312.036 253.38 312.036 252.38C312.036 251.407 312.216 250.567 312.576 249.86C312.95 249.14 313.47 248.58 314.136 248.18C314.816 247.78 315.623 247.58 316.556 247.58C317.09 247.58 317.59 247.673 318.056 247.86C318.523 248.033 318.923 248.267 319.256 248.56C319.59 248.853 319.83 249.173 319.976 249.52L319.876 247.96V242.3H321.996V257H319.936L319.896 255.38C319.763 255.673 319.536 255.96 319.216 256.24C318.91 256.52 318.536 256.753 318.096 256.94C317.656 257.113 317.17 257.2 316.636 257.2ZM316.996 255.38C317.49 255.38 317.936 255.267 318.336 255.04C318.75 254.8 319.076 254.467 319.316 254.04C319.57 253.613 319.696 253.107 319.696 252.52V252.38C319.696 251.78 319.57 251.26 319.316 250.82C319.076 250.367 318.75 250.02 318.336 249.78C317.936 249.527 317.49 249.4 316.996 249.4C316.103 249.4 315.43 249.687 314.976 250.26C314.536 250.833 314.316 251.54 314.316 252.38C314.316 253.233 314.536 253.947 314.976 254.52C315.43 255.093 316.103 255.38 316.996 255.38ZM334.044 257.2C333.15 257.2 332.337 257.007 331.604 256.62C330.884 256.233 330.304 255.673 329.864 254.94C329.437 254.207 329.224 253.327 329.224 252.3C329.224 251.34 329.417 250.507 329.804 249.8C330.204 249.093 330.757 248.547 331.464 248.16C332.184 247.773 333.01 247.58 333.944 247.58C334.717 247.58 335.35 247.68 335.844 247.88C336.35 248.08 336.73 248.293 336.984 248.52L336.024 250.26C335.97 250.193 335.864 250.093 335.704 249.96C335.544 249.827 335.33 249.707 335.064 249.6C334.81 249.48 334.497 249.42 334.124 249.42C333.244 249.42 332.584 249.687 332.144 250.22C331.717 250.753 331.504 251.44 331.504 252.28C331.504 253.253 331.73 254.02 332.184 254.58C332.65 255.127 333.297 255.4 334.124 255.4C334.564 255.4 334.977 255.34 335.364 255.22C335.75 255.087 336.044 254.947 336.244 254.8L337.024 256.32C336.784 256.507 336.404 256.7 335.884 256.9C335.364 257.1 334.75 257.2 334.044 257.2ZM342.989 257.2C342.029 257.2 341.182 256.987 340.449 256.56C339.729 256.133 339.169 255.553 338.769 254.82C338.369 254.087 338.169 253.273 338.169 252.38C338.169 251.5 338.362 250.7 338.749 249.98C339.149 249.247 339.709 248.667 340.429 248.24C341.149 247.8 342.002 247.58 342.989 247.58C343.976 247.58 344.829 247.8 345.549 248.24C346.269 248.667 346.822 249.247 347.209 249.98C347.596 250.7 347.789 251.5 347.789 252.38C347.789 253.273 347.589 254.087 347.189 254.82C346.802 255.553 346.249 256.133 345.529 256.56C344.809 256.987 343.962 257.2 342.989 257.2ZM343.049 255.44C343.849 255.44 344.462 255.147 344.889 254.56C345.329 253.973 345.549 253.26 345.549 252.42C345.549 251.847 345.442 251.333 345.229 250.88C345.016 250.413 344.709 250.04 344.309 249.76C343.922 249.48 343.462 249.34 342.929 249.34C342.409 249.34 341.962 249.48 341.589 249.76C341.216 250.04 340.922 250.413 340.709 250.88C340.509 251.333 340.409 251.847 340.409 252.42C340.409 252.98 340.522 253.493 340.749 253.96C340.976 254.413 341.282 254.773 341.669 255.04C342.069 255.307 342.529 255.44 343.049 255.44ZM349.9 257V247.82H352.02L352.04 249.5C352.28 248.953 352.667 248.5 353.2 248.14C353.747 247.767 354.4 247.58 355.16 247.58C356.147 247.58 356.887 247.787 357.38 248.2C357.874 248.6 358.2 249.173 358.36 249.92C358.534 250.667 358.62 251.553 358.62 252.58V257H356.46V252.64C356.46 251.573 356.354 250.76 356.14 250.2C355.94 249.64 355.467 249.36 354.72 249.36C354.334 249.36 353.934 249.48 353.52 249.72C353.107 249.96 352.76 250.307 352.48 250.76C352.2 251.213 352.06 251.773 352.06 252.44V257H349.9ZM364.335 257L359.495 247.82H361.955L363.935 251.96L364.575 253.62L365.215 251.96L367.175 247.82H369.575L364.755 257H364.335ZM374.905 257.2C373.758 257.2 372.825 256.98 372.105 256.54C371.385 256.087 370.858 255.493 370.525 254.76C370.191 254.027 370.025 253.247 370.025 252.42C370.025 251.42 370.225 250.56 370.625 249.84C371.038 249.12 371.605 248.567 372.325 248.18C373.045 247.78 373.858 247.58 374.765 247.58C376.218 247.58 377.278 247.987 377.945 248.8C378.611 249.6 378.945 250.68 378.945 252.04C378.945 252.4 378.925 252.773 378.885 253.16H372.285C372.431 253.987 372.725 254.58 373.165 254.94C373.618 255.287 374.218 255.46 374.965 255.46C375.685 255.46 376.251 255.393 376.665 255.26C377.078 255.127 377.418 254.993 377.685 254.86L378.345 256.4C378.078 256.573 377.665 256.753 377.105 256.94C376.545 257.113 375.811 257.2 374.905 257.2ZM372.285 251.66H376.845C376.858 250.793 376.665 250.2 376.265 249.88C375.865 249.56 375.345 249.4 374.705 249.4C374.038 249.4 373.491 249.58 373.065 249.94C372.651 250.287 372.391 250.86 372.285 251.66ZM381.014 257V247.82H383.134L383.154 249.5C383.394 248.953 383.78 248.5 384.314 248.14C384.86 247.767 385.514 247.58 386.274 247.58C387.26 247.58 388 247.787 388.494 248.2C388.987 248.6 389.314 249.173 389.474 249.92C389.647 250.667 389.734 251.553 389.734 252.58V257H387.574V252.64C387.574 251.573 387.467 250.76 387.254 250.2C387.054 249.64 386.58 249.36 385.834 249.36C385.447 249.36 385.047 249.48 384.634 249.72C384.22 249.96 383.874 250.307 383.594 250.76C383.314 251.213 383.174 251.773 383.174 252.44V257H381.014ZM392.248 257V247.82H394.488V257H392.248ZM393.368 246.1C392.955 246.1 392.608 245.96 392.328 245.68C392.061 245.4 391.928 245.053 391.928 244.64C391.928 244.267 392.061 243.947 392.328 243.68C392.608 243.413 392.955 243.28 393.368 243.28C393.781 243.28 394.121 243.413 394.388 243.68C394.668 243.947 394.808 244.267 394.808 244.64C394.808 245.053 394.668 245.4 394.388 245.68C394.121 245.96 393.781 246.1 393.368 246.1ZM401.545 257.2C400.398 257.2 399.465 256.98 398.745 256.54C398.025 256.087 397.498 255.493 397.165 254.76C396.832 254.027 396.665 253.247 396.665 252.42C396.665 251.42 396.865 250.56 397.265 249.84C397.678 249.12 398.245 248.567 398.965 248.18C399.685 247.78 400.498 247.58 401.405 247.58C402.858 247.58 403.918 247.987 404.585 248.8C405.252 249.6 405.585 250.68 405.585 252.04C405.585 252.4 405.565 252.773 405.525 253.16H398.925C399.072 253.987 399.365 254.58 399.805 254.94C400.258 255.287 400.858 255.46 401.605 255.46C402.325 255.46 402.892 255.393 403.305 255.26C403.718 255.127 404.058 254.993 404.325 254.86L404.985 256.4C404.718 256.573 404.305 256.753 403.745 256.94C403.185 257.113 402.452 257.2 401.545 257.2ZM398.925 251.66H403.485C403.498 250.793 403.305 250.2 402.905 249.88C402.505 249.56 401.985 249.4 401.345 249.4C400.678 249.4 400.132 249.58 399.705 249.94C399.292 250.287 399.032 250.86 398.925 251.66ZM407.654 257V247.82H409.774L409.794 249.5C410.034 248.953 410.421 248.5 410.954 248.14C411.501 247.767 412.154 247.58 412.914 247.58C413.901 247.58 414.641 247.787 415.134 248.2C415.628 248.6 415.954 249.173 416.114 249.92C416.288 250.667 416.374 251.553 416.374 252.58V257H414.214V252.64C414.214 251.573 414.108 250.76 413.894 250.2C413.694 249.64 413.221 249.36 412.474 249.36C412.088 249.36 411.688 249.48 411.274 249.72C410.861 249.96 410.514 250.307 410.234 250.76C409.954 251.213 409.814 251.773 409.814 252.44V257H407.654ZM419.568 257V249.58H417.948V247.82H419.568V244.08L421.748 243.6V247.82H423.868V249.58H421.748V257H419.568ZM430.525 257V247.82H432.685V249.48C432.992 248.827 433.432 248.347 434.005 248.04C434.579 247.733 435.219 247.58 435.925 247.58C436.832 247.593 437.519 247.753 437.985 248.06C438.452 248.367 438.772 248.773 438.945 249.28C439.239 248.76 439.679 248.347 440.265 248.04C440.852 247.733 441.472 247.58 442.125 247.58C443.125 247.58 443.865 247.773 444.345 248.16C444.839 248.533 445.159 249.08 445.305 249.8C445.465 250.507 445.545 251.373 445.545 252.4V257H443.365V252.38C443.365 251.353 443.259 250.593 443.045 250.1C442.845 249.607 442.419 249.36 441.765 249.36C440.885 249.36 440.239 249.653 439.825 250.24C439.412 250.827 439.205 251.56 439.205 252.44V257H437.045V252.06C437.045 251.487 437.019 251 436.965 250.6C436.925 250.2 436.785 249.893 436.545 249.68C436.319 249.467 435.925 249.36 435.365 249.36C434.899 249.36 434.459 249.5 434.045 249.78C433.645 250.06 433.319 250.433 433.065 250.9C432.825 251.353 432.705 251.867 432.705 252.44V257H430.525ZM448.068 257V247.82H450.308V257H448.068ZM449.188 246.1C448.775 246.1 448.428 245.96 448.148 245.68C447.882 245.4 447.748 245.053 447.748 244.64C447.748 244.267 447.882 243.947 448.148 243.68C448.428 243.413 448.775 243.28 449.188 243.28C449.602 243.28 449.942 243.413 450.208 243.68C450.488 243.947 450.628 244.267 450.628 244.64C450.628 245.053 450.488 245.4 450.208 245.68C449.942 245.96 449.602 246.1 449.188 246.1ZM457.305 257.2C456.412 257.2 455.599 257.007 454.865 256.62C454.145 256.233 453.565 255.673 453.125 254.94C452.699 254.207 452.485 253.327 452.485 252.3C452.485 251.34 452.679 250.507 453.065 249.8C453.465 249.093 454.019 248.547 454.725 248.16C455.445 247.773 456.272 247.58 457.205 247.58C457.979 247.58 458.612 247.68 459.105 247.88C459.612 248.08 459.992 248.293 460.245 248.52L459.285 250.26C459.232 250.193 459.125 250.093 458.965 249.96C458.805 249.827 458.592 249.707 458.325 249.6C458.072 249.48 457.759 249.42 457.385 249.42C456.505 249.42 455.845 249.687 455.405 250.22C454.979 250.753 454.765 251.44 454.765 252.28C454.765 253.253 454.992 254.02 455.445 254.58C455.912 255.127 456.559 255.4 457.385 255.4C457.825 255.4 458.239 255.34 458.625 255.22C459.012 255.087 459.305 254.947 459.505 254.8L460.285 256.32C460.045 256.507 459.665 256.7 459.145 256.9C458.625 257.1 458.012 257.2 457.305 257.2ZM462.282 257V247.82H464.442V249.62C464.655 249.02 464.995 248.533 465.462 248.16C465.942 247.773 466.495 247.58 467.122 247.58C467.549 247.58 467.842 247.62 468.002 247.7L467.702 249.88C467.582 249.8 467.322 249.76 466.922 249.76C466.589 249.76 466.229 249.833 465.842 249.98C465.455 250.127 465.122 250.387 464.842 250.76C464.575 251.12 464.442 251.627 464.442 252.28V257H462.282ZM473.438 257.2C472.478 257.2 471.632 256.987 470.898 256.56C470.178 256.133 469.618 255.553 469.218 254.82C468.818 254.087 468.618 253.273 468.618 252.38C468.618 251.5 468.812 250.7 469.198 249.98C469.598 249.247 470.158 248.667 470.878 248.24C471.598 247.8 472.452 247.58 473.438 247.58C474.425 247.58 475.278 247.8 475.998 248.24C476.718 248.667 477.272 249.247 477.658 249.98C478.045 250.7 478.238 251.5 478.238 252.38C478.238 253.273 478.038 254.087 477.638 254.82C477.252 255.553 476.698 256.133 475.978 256.56C475.258 256.987 474.412 257.2 473.438 257.2ZM473.498 255.44C474.298 255.44 474.912 255.147 475.338 254.56C475.778 253.973 475.998 253.26 475.998 252.42C475.998 251.847 475.892 251.333 475.678 250.88C475.465 250.413 475.158 250.04 474.758 249.76C474.372 249.48 473.912 249.34 473.378 249.34C472.858 249.34 472.412 249.48 472.038 249.76C471.665 250.04 471.372 250.413 471.158 250.88C470.958 251.333 470.858 251.847 470.858 252.42C470.858 252.98 470.972 253.493 471.198 253.96C471.425 254.413 471.732 254.773 472.118 255.04C472.518 255.307 472.978 255.44 473.498 255.44ZM480.7 252.94V251.02H487.56V252.94H480.7ZM491.034 257V249.54H489.554V247.82H491.034V245.84C491.034 244.653 491.321 243.727 491.894 243.06C492.467 242.393 493.321 242.06 494.454 242.06C494.814 242.06 495.134 242.113 495.414 242.22C495.707 242.327 495.901 242.4 495.994 242.44L495.574 244.48C495.507 244.4 495.374 244.307 495.174 244.2C494.987 244.08 494.767 244.02 494.514 244.02C494.327 244.02 494.127 244.06 493.914 244.14C493.714 244.207 493.541 244.367 493.394 244.62C493.247 244.86 493.167 245.24 493.154 245.76V247.82H495.314V249.54H493.154V257H491.034ZM497.048 257V247.82H499.208V249.62C499.421 249.02 499.761 248.533 500.228 248.16C500.708 247.773 501.261 247.58 501.888 247.58C502.314 247.58 502.608 247.62 502.768 247.7L502.468 249.88C502.348 249.8 502.088 249.76 501.688 249.76C501.354 249.76 500.994 249.833 500.608 249.98C500.221 250.127 499.888 250.387 499.608 250.76C499.341 251.12 499.208 251.627 499.208 252.28V257H497.048ZM508.062 257.2C507.249 257.2 506.489 257.007 505.782 256.62C505.089 256.233 504.529 255.68 504.102 254.96C503.675 254.24 503.462 253.38 503.462 252.38C503.462 251.42 503.642 250.58 504.002 249.86C504.375 249.14 504.895 248.58 505.562 248.18C506.242 247.78 507.049 247.58 507.982 247.58C508.542 247.58 509.049 247.68 509.502 247.88C509.969 248.067 510.355 248.3 510.662 248.58C510.982 248.847 511.195 249.107 511.302 249.36L511.342 247.82H513.402V257H511.362L511.322 255.38C511.189 255.673 510.962 255.96 510.642 256.24C510.335 256.52 509.962 256.753 509.522 256.94C509.082 257.113 508.595 257.2 508.062 257.2ZM508.422 255.4C508.915 255.4 509.362 255.287 509.762 255.06C510.175 254.82 510.502 254.487 510.742 254.06C510.995 253.633 511.122 253.127 511.122 252.54V252.4C511.122 251.8 510.995 251.28 510.742 250.84C510.502 250.387 510.175 250.04 509.762 249.8C509.362 249.547 508.915 249.42 508.422 249.42C507.529 249.42 506.855 249.707 506.402 250.28C505.962 250.853 505.742 251.56 505.742 252.4C505.742 253.253 505.962 253.967 506.402 254.54C506.855 255.113 507.529 255.4 508.422 255.4ZM515.975 257V247.82H518.135V249.48C518.441 248.827 518.881 248.347 519.455 248.04C520.028 247.733 520.668 247.58 521.375 247.58C522.281 247.593 522.968 247.753 523.435 248.06C523.901 248.367 524.221 248.773 524.395 249.28C524.688 248.76 525.128 248.347 525.715 248.04C526.301 247.733 526.921 247.58 527.575 247.58C528.575 247.58 529.315 247.773 529.795 248.16C530.288 248.533 530.608 249.08 530.755 249.8C530.915 250.507 530.995 251.373 530.995 252.4V257H528.815V252.38C528.815 251.353 528.708 250.593 528.495 250.1C528.295 249.607 527.868 249.36 527.215 249.36C526.335 249.36 525.688 249.653 525.275 250.24C524.861 250.827 524.655 251.56 524.655 252.44V257H522.495V252.06C522.495 251.487 522.468 251 522.415 250.6C522.375 250.2 522.235 249.893 521.995 249.68C521.768 249.467 521.375 249.36 520.815 249.36C520.348 249.36 519.908 249.5 519.495 249.78C519.095 250.06 518.768 250.433 518.515 250.9C518.275 251.353 518.155 251.867 518.155 252.44V257H515.975ZM537.912 257.2C536.766 257.2 535.832 256.98 535.112 256.54C534.392 256.087 533.866 255.493 533.532 254.76C533.199 254.027 533.032 253.247 533.032 252.42C533.032 251.42 533.232 250.56 533.632 249.84C534.046 249.12 534.612 248.567 535.332 248.18C536.052 247.78 536.866 247.58 537.772 247.58C539.226 247.58 540.286 247.987 540.952 248.8C541.619 249.6 541.952 250.68 541.952 252.04C541.952 252.4 541.932 252.773 541.892 253.16H535.292C535.439 253.987 535.732 254.58 536.172 254.94C536.626 255.287 537.226 255.46 537.972 255.46C538.692 255.46 539.259 255.393 539.672 255.26C540.086 255.127 540.426 254.993 540.692 254.86L541.352 256.4C541.086 256.573 540.672 256.753 540.112 256.94C539.552 257.113 538.819 257.2 537.912 257.2ZM535.292 251.66H539.852C539.866 250.793 539.672 250.2 539.272 249.88C538.872 249.56 538.352 249.4 537.712 249.4C537.046 249.4 536.499 249.58 536.072 249.94C535.659 250.287 535.399 250.86 535.292 251.66ZM552.322 257L549.602 251.9L546.882 257H546.502L542.642 247.82H544.962L546.942 253.16L549.562 247.82H549.642L552.282 253.12L554.262 247.82H556.542L552.702 257H552.322ZM562.013 257.2C561.053 257.2 560.206 256.987 559.473 256.56C558.753 256.133 558.193 255.553 557.793 254.82C557.393 254.087 557.193 253.273 557.193 252.38C557.193 251.5 557.386 250.7 557.773 249.98C558.173 249.247 558.733 248.667 559.453 248.24C560.173 247.8 561.026 247.58 562.013 247.58C562.999 247.58 563.853 247.8 564.573 248.24C565.293 248.667 565.846 249.247 566.233 249.98C566.619 250.7 566.813 251.5 566.813 252.38C566.813 253.273 566.613 254.087 566.213 254.82C565.826 255.553 565.273 256.133 564.553 256.56C563.833 256.987 562.986 257.2 562.013 257.2ZM562.073 255.44C562.873 255.44 563.486 255.147 563.913 254.56C564.353 253.973 564.573 253.26 564.573 252.42C564.573 251.847 564.466 251.333 564.253 250.88C564.039 250.413 563.733 250.04 563.333 249.76C562.946 249.48 562.486 249.34 561.953 249.34C561.433 249.34 560.986 249.48 560.613 249.76C560.239 250.04 559.946 250.413 559.733 250.88C559.533 251.333 559.433 251.847 559.433 252.42C559.433 252.98 559.546 253.493 559.773 253.96C559.999 254.413 560.306 254.773 560.693 255.04C561.093 255.307 561.553 255.44 562.073 255.44ZM568.903 257V247.82H571.063V249.62C571.276 249.02 571.616 248.533 572.083 248.16C572.563 247.773 573.116 247.58 573.743 247.58C574.17 247.58 574.463 247.62 574.623 247.7L574.323 249.88C574.203 249.8 573.943 249.76 573.543 249.76C573.21 249.76 572.85 249.833 572.463 249.98C572.076 250.127 571.743 250.387 571.463 250.76C571.196 251.12 571.063 251.627 571.063 252.28V257H568.903ZM576.075 257V242.3H578.135V250.36L578.095 251.92L581.595 247.82H584.255L580.795 251.66L584.275 257H581.735L579.875 254L579.355 252.98L578.155 254.28V257H576.075Z" fill="white"/>
<defs>
<filter id="filter0_d_2_42" x="0.9" y="0.9" width="323.35" height="295.2" filterUnits="userSpaceOnUse" color-interpolation-filters="sRGB">
<feFlood flood-opacity="0" result="BackgroundImageFix"/>
<feColorMatrix in="SourceAlpha" type="matrix" values="0 0 0 0 0 0 0 0 0 0 0 0 0 0 0 0 0 0 127 0" result="hardAlpha"/>
<feOffset/>
<feGaussianBlur stdDeviation="7.55"/>
<feComposite in2="hardAlpha" operator="out"/>
<feColorMatrix type="matrix" values="0 0 0 0 0.486275 0 0 0 0 0.227451 0 0 0 0 0.929412 0 0 0 0.9 0"/>
<feBlend mode="normal" in2="BackgroundImageFix" result="effect1_dropShadow_2_42"/>
<feBlend mode="normal" in="SourceGraphic" in2="effect1_dropShadow_2_42" result="shape"/>
</filter>
<filter id="filter1_d_2_42" x="155.576" y="125.496" width="288.313" height="144.544" filterUnits="userSpaceOnUse" color-interpolation-filters="sRGB">
<feFlood flood-opacity="0" result="BackgroundImageFix"/>
<feColorMatrix in="SourceAlpha" type="matrix" values="0 0 0 0 0 0 0 0 0 0 0 0 0 0 0 0 0 0 127 0" result="hardAlpha"/>
<feOffset/>
<feGaussianBlur stdDeviation="24.2"/>
<feComposite in2="hardAlpha" operator="out"/>
<feColorMatrix type="matrix" values="0 0 0 0 0.486275 0 0 0 0 0.227451 0 0 0 0 0.929412 0 0 0 0.9 0"/>
<feBlend mode="normal" in2="BackgroundImageFix" result="effect1_dropShadow_2_42"/>
<feBlend mode="normal" in="SourceGraphic" in2="effect1_dropShadow_2_42" result="shape"/>
</filter>
</defs>
</svg>
